<?xml version="1.0" encoding="utf-8"?>
<!-- Generator: Adobe Illustrator 23.0.5, SVG Export Plug-In . SVG Version: 6.00 Build 0)  -->
<svg version="1.1" id="Capa_1" xmlns="http://www.w3.org/2000/svg" xmlns:xlink="http://www.w3.org/1999/xlink" x="0px" y="0px"
	 viewBox="0 0 180.9 55.1" style="enable-background:new 0 0 180.9 55.1;" xml:space="preserve">
<style type="text/css">
	.st0{fill:#FFFFFF;}
</style>
<g>
	<polygon class="st0" points="130.5,32.4 134.2,32.4 132.3,21.2 	"/>
	<path class="st0" d="M31.8,28.4c-0.2,0.2-0.3,0.4-0.4,0.5c2.2,3.3,4.5,6,6.9,8c1.2-1.1,2.3-2.2,3.2-3.4c-2.6-1.9-5.8-3.8-9.3-5.5
		C32.1,28,32,28.2,31.8,28.4z"/>
	<path class="st0" d="M0,0v55.1h180.9V0H0z M13.5,11.4h17.4c-0.8-1.3-1.5-2.2-1.9-2.8l4.2-1.2c0.5,0.7,1.3,2,2.3,4h16.8v3.9H13.5
		V11.4z M18.8,47.6l0-16.9c-1.4,1.6-2.6,2.9-3.6,3.7l-2.1-3.6c4.2-4.4,7.4-9.3,9.5-14.7l3.9,1.1c-0.9,2.5-2.1,5-3.6,7.5l0,22.8H18.8
		z M51.4,47.6c-5.1-1.4-9.5-3.4-13-5.8c-2.7,1.9-6.8,3.8-12.3,5.8L23.8,44c4.1-1.1,7.9-2.6,11.4-4.7c-2.4-2.1-4.6-4.6-6.5-7.6
		c-0.6,0.6-1.2,1.1-1.8,1.6l-2.8-2.9c4.5-3.9,8-8.7,10.5-14.3l3.9,1.3c-0.6,1.2-1,2.2-1.4,2.8h13.1c-0.8,8.2-3.7,14.4-8.7,18.8
		c3,1.9,6.9,3.5,11.8,4.7L51.4,47.6z M77.1,47.5H62.7v-40h5.1v35h9.3V47.5z M84.4,47.5h-5v-40h5V47.5z M102.3,47.5H87.9v-40h5.1v35
		h9.3V47.5z M120.8,47.5h-5L109.6,24v23.5h-5v-40h5l6.2,23.5V7.5h5V47.5z M136.9,47.5l-1.8-10h-5.5l-1.7,10h-5l6.9-40h5l7,40H136.9z
		 M149.1,47.5h-5v-40h5V47.5z M167.4,12.5h-5.6v35h-5v-35h-5.5V7.5h16.1V12.5z"/>
	<path class="st0" d="M45.7,24H34.9c-0.1,0.1-0.3,0.4-0.6,1c3.7,1.8,6.8,3.6,9.2,5.3C44.6,28,45.3,26,45.7,24z"/>
</g>
</svg>
